<?xml version="1.0" encoding="UTF-8" standalone="no"?>
<!DOCTYPE svg PUBLIC "-//W3C//DTD SVG 1.1//EN" "http://www.w3.org/Graphics/SVG/1.1/DTD/svg11.dtd">
<svg xmlns="http://www.w3.org/2000/svg" version="1.1" viewBox="0.00 0.00 1024.00 1024.00">
<g stroke-width="2.00" fill="none" stroke-linecap="butt">
<path stroke="#96a3b5" vector-effect="non-scaling-stroke" d="
  M 175.08 422.54
  C 147.22 516.36 158.74 620.40 212.09 704.47
  C 241.98 751.57 281.33 789.72 329.03 818.45
  C 380.55 849.48 440.37 867.50 501.01 869.19
  Q 573.10 871.19 640.70 845.56
  C 708.78 819.75 767.46 771.59 807.62 710.88
  C 849.39 647.70 867.40 572.75 862.35 497.50
  C 858.42 438.78 838.36 379.25 804.32 330.30
  Q 750.34 252.68 666.51 212.21
  Q 605.59 182.81 540.75 177.28
  C 454.66 169.93 368.09 196.07 299.13 247.36
  C 241.47 290.25 195.63 353.34 175.08 422.54"
/>
<path stroke="#96a3b5" vector-effect="non-scaling-stroke" d="
  M 556.99 708.09
  Q 567.42 697.84 576.79 688.29
  C 579.69 685.34 579.33 681.29 579.30 677.19
  C 579.26 672.64 578.08 670.51 575.04 667.47
  Q 566.59 659.05 557.68 649.97
  Q 556.41 648.68 557.44 647.19
  Q 558.12 646.19 559.65 644.65
  Q 566.87 637.37 574.14 630.14
  C 576.95 627.34 580.14 623.97 576.96 620.03
  C 573.26 615.46 568.39 611.14 564.07 606.61
  A 2.21 2.20 -44.5 0 1 564.10 603.55
  Q 570.70 596.85 576.58 590.79
  C 579.74 587.54 579.04 583.14 579.03 579.00
  Q 578.96 560.63 579.17 542.25
  Q 579.20 539.97 580.85 539.09
  C 637.02 509.23 667.53 453.10 667.50 390.00
  Q 667.50 383.30 667.00 378.47
  C 666.50 373.62 663.93 368.64 663.13 364.01
  Q 660.80 350.51 657.94 339.75
  C 649.66 308.57 627.74 281.34 602.08 262.41
  C 573.39 241.24 533.31 228.63 496.50 232.03
  C 452.38 236.10 411.68 257.08 384.38 293.37
  Q 374.43 306.59 370.21 317.97
  C 364.57 333.17 362.79 354.57 360.01 370.00
  Q 358.69 377.33 353.19 382.63
  C 352.60 383.21 352.25 384.58 352.24 385.39
  C 351.18 444.35 379.51 502.68 430.58 533.99
  Q 436.33 537.52 442.25 540.04
  A 2.53 2.52 -78.6 0 1 443.79 542.37
  Q 443.90 652.63 443.51 762.51
  Q 443.49 768.56 443.74 770.28
  Q 444.43 775.22 448.74 779.52
  Q 471.36 802.09 494.07 824.59
  C 495.59 826.10 497.87 827.65 499.74 827.79
  Q 505.83 828.24 517.35 827.94
  C 521.84 827.82 524.75 827.95 527.50 825.28
  C 541.65 811.52 557.71 793.99 575.00 777.75
  Q 578.86 774.12 578.93 768.75
  Q 579.12 754.16 579.27 739.56
  Q 579.32 734.84 575.90 731.36
  C 568.42 723.74 562.50 718.36 556.85 711.88
  Q 555.13 709.91 556.99 708.09"
/>
<path stroke="#96a3b5" vector-effect="non-scaling-stroke" d="
  M 351.02 305.65
  Q 353.43 301.07 349.15 298.79
  C 344.29 296.19 338.19 300.45 335.37 304.44
  C 331.66 309.69 333.28 317.96 340.56 318.22
  C 343.78 318.34 346.33 318.19 347.33 314.76
  Q 348.72 310.02 351.02 305.65"
/>
<path stroke="#96a3b5" vector-effect="non-scaling-stroke" d="
  M 671.17 307.81
  Q 673.04 311.12 675.99 317.53
  Q 676.57 318.78 678.50 319.04
  C 685.51 319.99 691.58 314.49 688.67 307.55
  C 686.37 302.05 676.64 294.82 671.59 301.32
  Q 669.23 304.36 671.17 307.81"
/>
<path stroke="#96a3b5" vector-effect="non-scaling-stroke" d="
  M 335.57 329.91
  C 329.47 327.39 325.72 330.29 320.44 334.33
  Q 314.89 338.59 311.45 342.99
  Q 307.77 347.71 312.21 351.78
  Q 320.47 359.35 327.25 364.75
  Q 330.62 367.43 334.10 365.81
  A 2.25 2.23 82.7 0 0 335.37 364.15
  Q 337.15 353.59 339.78 343.28
  C 341.31 337.28 341.87 332.51 335.57 329.91"
/>
<path stroke="#96a3b5" vector-effect="non-scaling-stroke" d="
  M 774.14 444.98
  C 762.38 404.98 740.52 371.35 710.98 342.02
  Q 705.48 336.57 699.29 331.96
  C 694.59 328.47 687.57 328.76 684.50 334.09
  C 682.85 336.96 683.59 340.42 684.57 343.45
  Q 689.11 357.47 691.65 371.98
  Q 692.33 375.82 693.86 376.90
  Q 702.74 383.20 710.56 394.42
  Q 732.01 425.17 740.90 458.76
  C 742.35 464.24 747.44 463.32 751.76 461.57
  Q 760.26 458.12 769.00 455.31
  C 775.61 453.19 775.86 450.85 774.14 444.98"
/>
<path stroke="#96a3b5" vector-effect="non-scaling-stroke" d="
  M 253.95 432.13
  Q 251.13 439.92 249.33 448.00
  C 248.53 451.59 251.29 453.15 254.00 454.09
  Q 262.96 457.19 271.83 460.58
  C 276.73 462.46 281.42 463.16 283.23 457.26
  Q 293.12 424.99 311.21 398.39
  Q 315.70 391.78 309.86 386.16
  Q 302.97 379.53 295.91 373.08
  C 290.75 368.38 288.29 370.44 284.93 374.91
  Q 265.16 401.21 253.95 432.13"
/>
<path stroke="#96a3b5" vector-effect="non-scaling-stroke" d="
  M 326.8392 513.2377
  A 17.58 17.28 81.3 0 0 341.2612 493.2462
  A 17.58 17.28 81.3 0 0 321.5208 478.4823
  A 17.58 17.28 81.3 0 0 307.0988 498.4738
  A 17.58 17.28 81.3 0 0 326.8392 513.2377"
/>
<path stroke="#96a3b5" vector-effect="non-scaling-stroke" d="
  M 692.8556 511.9148
  A 17.71 17.38 115.5 0 0 716.1669 503.4123
  A 17.71 17.38 115.5 0 0 708.1044 479.9452
  A 17.71 17.38 115.5 0 0 684.7931 488.4477
  A 17.71 17.38 115.5 0 0 692.8556 511.9148"
/>
<path stroke="#96a3b5" vector-effect="non-scaling-stroke" d="
  M 248.9089 523.8624
  A 20.55 20.24 101.0 0 0 272.6981 507.5520
  A 20.55 20.24 101.0 0 0 256.7511 483.5176
  A 20.55 20.24 101.0 0 0 232.9619 499.8280
  A 20.55 20.24 101.0 0 0 248.9089 523.8624"
/>
<path stroke="#96a3b5" vector-effect="non-scaling-stroke" d="
  M 762.6906 522.2625
  A 20.61 20.28 116.2 0 0 789.9864 512.7237
  A 20.61 20.28 116.2 0 0 780.8894 485.2775
  A 20.61 20.28 116.2 0 0 753.5936 494.8163
  A 20.61 20.28 116.2 0 0 762.6906 522.2625"
/>
<path stroke="#96a3b5" vector-effect="non-scaling-stroke" d="
  M 290.80 580.53
  A 29.83 29.83 0.0 0 0 260.97 550.70
  A 29.83 29.83 0.0 0 0 231.14 580.53
  A 29.83 29.83 0.0 0 0 260.97 610.36
  A 29.83 29.83 0.0 0 0 290.80 580.53"
/>
<path stroke="#96a3b5" vector-effect="non-scaling-stroke" d="
  M 793.34 580.49
  A 29.92 29.92 0.0 0 0 763.42 550.57
  A 29.92 29.92 0.0 0 0 733.50 580.49
  A 29.92 29.92 0.0 0 0 763.42 610.41
  A 29.92 29.92 0.0 0 0 793.34 580.49"
/>
<path stroke="#96a3b5" vector-effect="non-scaling-stroke" d="
  M 652.08 589.72
  Q 632.54 589.80 612.75 589.76
  C 608.12 589.75 603.77 591.01 603.41 595.75
  Q 602.96 601.66 603.39 609.26
  C 603.64 613.76 604.94 618.12 609.99 618.13
  Q 629.65 618.17 650.01 617.98
  A 3.75 3.74 73.3 0 1 653.19 619.69
  C 660.79 631.49 672.77 637.57 686.74 634.15
  C 709.80 628.51 719.08 599.78 702.85 581.90
  C 696.66 575.08 688.54 571.31 679.20 571.53
  Q 661.49 571.93 653.30 588.95
  A 1.36 1.35 -77.1 0 1 652.08 589.72"
/>
<path stroke="#96a3b5" vector-effect="non-scaling-stroke" d="
  M 374.53 589.95
  A 1.49 1.48 77.5 0 1 373.16 589.07
  Q 366.56 574.38 352.09 572.07
  C 339.75 570.11 327.47 575.21 320.60 585.75
  C 305.45 608.95 324.81 639.87 352.45 634.39
  Q 365.51 631.80 373.03 619.19
  Q 373.56 618.30 375.00 618.28
  Q 392.63 618.03 410.25 618.19
  C 414.60 618.23 419.61 617.52 419.94 612.25
  Q 420.42 604.75 420.04 597.24
  C 419.73 591.00 415.74 589.37 410.00 589.48
  Q 392.20 589.83 374.53 589.95"
/>
<path stroke="#96a3b5" vector-effect="non-scaling-stroke" d="
  M 741.23 628.09
  C 735.64 625.57 731.39 622.83 727.86 628.82
  Q 719.89 642.33 714.45 650.39
  Q 711.49 654.77 715.41 657.34
  Q 727.97 665.58 735.00 671.02
  C 740.28 675.11 744.53 671.02 747.31 666.76
  Q 753.23 657.66 758.78 648.32
  Q 761.19 644.26 761.51 642.95
  Q 762.59 638.51 757.99 636.15
  Q 749.72 631.91 741.23 628.09"
/>
<path stroke="#96a3b5" vector-effect="non-scaling-stroke" d="
  M 287.69 634.42
  Q 279.66 638.77 271.97 643.73
  Q 265.86 647.67 269.54 653.95
  Q 275.84 664.71 285.14 675.90
  C 287.35 678.56 289.95 679.56 292.76 677.23
  Q 303.36 668.45 312.52 662.29
  Q 316.77 659.43 314.20 655.33
  Q 304.49 639.81 301.98 635.25
  C 297.80 627.65 293.05 631.52 287.69 634.42"
/>
<path stroke="#96a3b5" vector-effect="non-scaling-stroke" d="
  M 718.2064 692.9995
  A 26.81 26.39 -23.5 0 0 683.0970 679.4888
  A 26.81 26.39 -23.5 0 0 669.0336 714.3805
  A 26.81 26.39 -23.5 0 0 704.1430 727.8912
  A 26.81 26.39 -23.5 0 0 718.2064 692.9995"
/>
<path stroke="#96a3b5" vector-effect="non-scaling-stroke" d="
  M 360.08 703.76
  A 24.80 24.80 0.0 0 0 335.28 678.96
  A 24.80 24.80 0.0 0 0 310.48 703.76
  A 24.80 24.80 0.0 0 0 335.28 728.56
  A 24.80 24.80 0.0 0 0 360.08 703.76"
/>
<path stroke="#96a3b5" vector-effect="non-scaling-stroke" d="
  M 372.81 755.94
  C 383.40 762.02 394.67 767.73 405.96 772.36
  C 410.01 774.01 416.31 774.11 416.76 769.00
  Q 417.77 757.51 419.11 746.01
  C 419.84 739.74 419.65 736.18 413.64 733.64
  Q 408.52 731.47 392.46 722.95
  Q 387.68 720.42 384.57 724.82
  Q 379.47 732.04 369.85 743.86
  C 365.40 749.32 367.12 752.67 372.81 755.94"
/>
<path stroke="#96a3b5" vector-effect="non-scaling-stroke" d="
  M 624.04 769.44
  Q 640.21 762.93 655.25 754.06
  Q 661.43 750.42 657.40 744.36
  Q 651.47 735.42 645.58 726.44
  Q 644.21 724.35 641.57 722.41
  Q 641.16 722.10 640.66 722.17
  Q 637.66 722.57 634.89 723.87
  Q 621.81 730.05 608.21 734.95
  C 604.96 736.12 601.95 738.24 602.36 741.62
  Q 603.58 751.69 606.69 768.47
  C 608.35 777.43 619.08 771.44 624.04 769.44"
/>
<path stroke="#96a3b5" vector-effect="non-scaling-stroke" d="
  M 553.72 288.21
  C 580.06 300.33 600.89 325.83 609.15 353.19
  Q 610.52 357.73 612.58 359.43
  C 616.16 362.37 623.52 360.97 624.66 355.67
  Q 625.34 352.56 624.35 349.03
  C 614.52 313.70 589.49 283.86 554.86 270.74
  C 548.70 268.41 539.58 269.30 541.09 278.45
  C 542.03 284.11 549.13 286.10 553.72 288.21"
/>
<path stroke="#96a3b5" vector-effect="non-scaling-stroke" d="
  M 452.75 273.78
  C 423.06 286.71 401.87 312.55 392.28 343.19
  Q 389.79 351.13 389.51 357.24
  C 389.20 363.97 394.46 369.39 401.15 366.95
  C 403.66 366.03 405.08 364.27 405.74 361.75
  C 407.13 356.39 408.44 350.73 410.28 345.81
  Q 422.79 312.46 452.96 293.48
  C 456.70 291.13 467.58 287.45 469.56 284.33
  C 472.03 280.45 471.64 275.70 467.88 272.94
  C 463.57 269.77 457.16 271.87 452.75 273.78"
/>
<path stroke="#96a3b5" vector-effect="non-scaling-stroke" d="
  M 576.26 328.99
  C 560.67 307.56 537.91 295.74 511.50 295.25
  Q 482.16 294.71 459.49 311.34
  C 452.98 316.12 447.51 322.16 442.07 328.57
  Q 437.14 334.37 440.35 339.88
  C 445.59 348.90 452.47 341.86 456.17 336.67
  C 479.77 303.50 530.39 300.51 558.01 330.56
  C 562.29 335.22 566.89 346.30 574.66 342.64
  C 580.44 339.92 579.59 333.55 576.26 328.99"
/>
<path stroke="#96a3b5" vector-effect="non-scaling-stroke" d="
  M 523.68 405.12
  C 538.95 399.94 547.46 385.39 544.99 369.26
  C 541.20 344.44 512.29 331.51 491.47 345.66
  C 469.21 360.79 472.19 393.79 496.55 404.93
  C 498.23 405.70 498.80 406.73 498.78 408.50
  Q 498.49 435.00 498.37 461.50
  C 498.33 470.09 500.20 474.19 506.84 479.68
  C 508.97 481.44 511.54 481.59 513.87 479.86
  C 516.73 477.72 522.82 472.19 522.77 468.25
  Q 522.43 437.37 522.67 406.53
  A 1.51 1.49 81.0 0 1 523.68 405.12"
/>
<path stroke="#96a3b5" vector-effect="non-scaling-stroke" d="
  M 607.54 428.63
  Q 604.96 433.99 602.48 439.42
  C 597.81 449.62 611.60 456.42 617.01 446.29
  Q 630.55 420.93 631.00 393.00
  C 631.11 385.75 625.77 380.75 618.61 384.92
  C 615.15 386.94 615.50 394.70 615.00 401.00
  Q 613.85 415.52 607.54 428.63"
/>
<path stroke="#96a3b5" vector-effect="non-scaling-stroke" d="
  M 396.13 428.94
  C 398.01 434.12 403.48 450.18 409.10 450.93
  C 414.62 451.66 419.58 448.37 418.77 442.54
  Q 418.42 440.03 417.73 438.83
  Q 406.29 419.13 405.14 396.50
  Q 404.84 390.73 404.19 389.11
  C 401.51 382.47 389.63 383.28 389.57 391.24
  Q 389.43 410.45 396.13 428.94"
/>
<path stroke="#96a3b5" vector-effect="non-scaling-stroke" d="
  M 549.48 518.33
  A 1.99 1.99 0.0 0 1 551.00 516.50
  C 558.96 514.51 578.85 511.27 575.45 498.74
  C 572.63 488.36 561.19 494.40 555.08 496.60
  C 532.76 504.66 510.68 505.79 487.36 501.53
  C 480.96 500.36 475.31 500.13 475.04 508.24
  Q 474.78 516.16 474.78 520.00
  Q 474.79 637.87 474.80 755.75
  C 474.80 760.47 475.32 763.39 477.91 766.08
  Q 493.86 782.64 510.23 798.14
  A 1.34 1.34 0.0 0 0 512.11 798.10
  Q 529.20 780.63 546.29 763.85
  C 547.83 762.34 548.88 760.74 549.01 758.75
  Q 549.51 750.96 548.95 740.26
  Q 548.83 737.93 546.83 735.91
  Q 539.82 728.85 524.25 713.74
  C 519.61 709.24 520.00 702.46 524.53 698.03
  Q 536.28 686.54 547.42 674.66
  A 1.96 1.96 0.0 0 0 547.38 671.94
  Q 536.52 661.10 525.91 650.58
  C 520.57 645.29 523.71 641.12 528.18 636.62
  Q 535.21 629.56 542.18 622.43
  Q 543.34 621.25 544.13 619.75
  Q 544.37 619.31 544.13 618.86
  Q 543.53 617.74 542.59 616.90
  Q 537.08 611.93 531.78 606.74
  C 527.20 602.24 529.05 597.46 533.03 593.52
  Q 540.24 586.37 547.32 579.08
  C 549.46 576.89 549.24 573.58 549.24 570.75
  Q 549.26 546.12 549.39 521.50
  Q 549.40 519.68 549.48 518.33"
/>
</g>
<path fill="#2c466b" d="
  M 727.59 837.87
  C 711.81 849.26 694.03 857.69 676.75 866.47
  C 673.33 868.21 669.26 869.36 666.19 870.73
  C 629.94 886.91 592.08 895.15 553.95 900.02
  Q 547.57 900.83 541.50 900.97
  C 535.60 901.09 529.95 900.60 524.64 901.18
  Q 524.57 901.18 520.42 902.12
  C 514.30 903.50 507.03 903.12 500.64 902.89
  Q 498.57 902.81 494.47 901.84
  C 488.40 900.39 482.68 901.09 475.14 900.89
  C 472.02 900.81 469.53 899.32 466.50 899.15
  Q 463.29 898.97 460.08 898.92
  C 456.40 898.87 453.13 897.42 449.57 897.11
  C 444.94 896.71 440.85 895.28 436.26 894.83
  C 433.77 894.59 431.78 893.57 429.40 893.20
  Q 426.64 892.76 423.98 891.92
  C 420.97 890.98 418.04 891.30 415.34 890.28
  C 409.94 888.26 403.58 886.98 398.92 885.47
  C 388.00 881.93 376.89 878.56 366.35 874.00
  C 359.24 870.93 352.91 868.50 344.55 864.12
  C 340.39 861.93 335.18 860.01 330.66 857.49
  Q 326.87 855.38 322.12 852.94
  C 318.23 850.95 314.53 848.30 310.95 846.40
  Q 298.72 839.88 291.17 834.08
  C 284.78 829.16 278.23 824.47 271.87 819.50
  C 269.30 817.50 266.49 815.86 264.21 813.67
  Q 261.71 811.27 259.25 808.84
  C 256.51 806.14 253.20 804.60 250.53 801.98
  Q 235.87 787.61 228.23 779.76
  C 225.07 776.52 222.63 772.37 219.51 769.14
  C 217.10 766.64 215.11 764.61 213.00 761.49
  C 210.46 757.74 207.05 754.47 204.62 751.01
  C 202.62 748.16 200.28 745.46 198.45 742.71
  Q 190.04 730.09 181.62 717.48
  C 178.22 712.40 175.93 706.94 172.68 701.81
  Q 167.53 693.68 164.00 684.76
  Q 161.92 679.50 160.46 676.50
  C 156.17 667.66 153.12 658.62 149.61 649.43
  C 146.67 641.74 144.69 633.27 141.93 625.20
  C 140.19 620.12 139.76 614.42 137.97 609.25
  C 137.02 606.48 136.90 603.75 136.00 600.97
  C 134.76 597.14 135.58 593.75 134.24 590.27
  C 132.87 586.71 133.41 583.45 132.21 580.03
  C 130.50 575.13 131.18 570.65 130.91 565.57
  C 130.73 562.28 129.07 558.96 129.06 555.50
  Q 129.03 543.66 128.98 531.82
  C 128.97 527.07 127.77 520.16 128.38 514.20
  Q 129.00 508.10 129.01 505.75
  Q 129.01 498.50 129.10 491.25
  C 129.14 487.65 130.96 485.17 130.96 481.68
  Q 130.96 476.87 131.20 472.07
  C 131.34 469.25 132.90 467.12 132.95 464.29
  C 133.01 461.42 133.04 459.37 134.02 456.43
  C 135.08 453.24 135.06 449.83 135.84 446.90
  Q 138.32 437.64 140.52 428.32
  Q 141.27 425.14 143.31 418.73
  C 144.67 414.43 145.48 409.80 146.83 405.83
  C 151.91 390.85 156.18 380.90 160.54 370.57
  Q 164.00 362.37 164.00 362.36
  C 168.47 352.77 173.72 344.13 178.96 334.55
  C 184.13 325.10 190.47 316.20 196.49 307.27
  Q 197.56 305.69 200.41 302.06
  C 202.23 299.73 203.70 297.25 205.59 295.01
  Q 207.66 292.56 209.48 289.92
  C 212.27 285.90 215.89 282.86 218.77 278.86
  Q 221.67 274.82 223.84 272.65
  Q 238.72 257.77 253.60 242.92
  C 256.55 239.97 260.50 237.90 263.74 234.85
  Q 266.13 232.61 268.81 230.79
  C 272.41 228.35 275.32 225.06 278.73 222.82
  C 282.41 220.40 285.16 218.55 289.32 215.26
  C 292.46 212.77 296.20 211.38 299.17 209.13
  C 303.31 206.00 307.38 203.63 311.76 200.89
  C 315.59 198.49 320.93 195.97 325.30 193.12
  C 331.26 189.24 337.83 186.24 344.22 183.12
  C 347.38 181.58 350.77 180.90 353.79 179.29
  C 359.14 176.43 365.12 174.47 370.33 172.08
  C 383.52 166.04 397.68 162.61 411.63 158.25
  C 414.10 157.47 417.60 157.02 420.51 156.02
  C 423.22 155.09 425.86 154.88 428.56 154.03
  C 431.75 153.03 434.85 153.14 438.06 152.17
  Q 440.62 151.40 442.99 151.13
  C 446.31 150.76 449.35 149.51 452.50 149.19
  C 455.00 148.95 457.40 148.95 459.81 148.19
  C 464.02 146.88 467.84 147.04 472.18 146.81
  C 475.11 146.65 477.63 145.38 480.55 145.28
  Q 488.54 144.99 496.52 144.59
  C 499.61 144.43 502.57 143.28 505.68 143.32
  C 511.56 143.40 517.32 143.22 523.21 144.02
  C 525.89 144.39 528.85 144.25 531.26 144.48
  Q 538.60 145.19 545.97 145.57
  C 548.45 145.70 550.62 146.52 553.01 146.65
  C 557.81 146.92 561.41 147.20 566.78 148.35
  C 569.97 149.03 573.28 149.09 576.37 149.81
  C 580.45 150.76 584.15 151.24 588.61 152.30
  C 591.45 152.98 594.42 153.17 597.08 153.89
  C 603.99 155.74 610.84 157.24 617.69 159.39
  Q 620.84 160.38 623.65 161.10
  C 635.77 164.19 647.72 168.86 659.21 173.76
  C 661.86 174.89 664.73 175.58 667.20 176.82
  Q 686.02 186.25 704.88 195.62
  Q 713.46 199.89 737.16 216.10
  C 738.85 217.26 740.56 219.02 742.57 220.31
  C 745.90 222.44 748.66 225.01 752.00 227.30
  C 755.26 229.54 757.71 232.50 760.98 234.56
  Q 764.11 236.54 765.16 237.59
  Q 785.21 257.79 805.41 277.84
  C 807.81 280.22 809.73 283.72 811.96 286.45
  C 814.24 289.24 816.05 292.30 818.46 294.88
  C 820.13 296.68 821.71 298.33 823.05 300.50
  C 826.21 305.63 831.02 311.69 833.41 315.08
  Q 839.74 324.09 841.35 327.16
  C 844.27 332.73 847.92 338.21 850.56 343.48
  Q 856.65 355.66 862.71 367.84
  Q 863.71 369.86 865.17 374.03
  C 866.17 376.88 867.65 379.52 868.59 382.28
  C 870.02 386.50 872.09 390.70 873.40 394.63
  C 875.53 401.05 877.47 406.54 879.32 413.83
  C 880.35 417.91 881.91 421.80 882.86 425.88
  C 884.07 431.08 886.05 436.03 886.99 441.13
  C 888.32 448.34 890.59 455.75 891.11 463.04
  Q 891.27 465.37 892.13 468.75
  Q 893.31 473.43 893.00 478.32
  C 892.74 482.41 894.99 485.46 894.99 489.25
  Q 895.01 521.25 894.99 553.25
  C 894.98 555.57 894.93 557.46 894.12 559.78
  C 892.68 563.92 893.08 567.57 892.90 571.60
  C 892.81 573.59 892.15 575.04 891.55 576.93
  C 890.36 580.72 891.16 585.47 890.27 589.58
  C 889.14 594.82 887.52 600.23 886.88 605.54
  C 886.52 608.53 885.40 611.14 884.94 614.12
  C 884.19 618.92 882.63 623.63 881.39 628.30
  C 879.07 637.07 875.95 645.58 873.15 654.20
  C 872.09 657.47 870.32 660.78 869.10 664.22
  Q 868.14 666.95 866.49 670.62
  C 865.21 673.49 864.49 676.60 863.16 679.25
  C 857.98 689.63 853.13 700.57 847.10 710.47
  C 840.52 721.25 833.61 732.25 823.34 746.79
  C 821.10 749.97 817.50 753.93 814.82 757.73
  C 812.28 761.32 809.19 764.32 806.57 767.85
  Q 803.94 771.41 801.79 773.59
  Q 786.25 789.39 770.47 804.95
  Q 767.94 807.44 762.88 811.32
  C 759.33 814.04 756.21 817.34 752.70 819.83
  C 746.89 823.94 741.24 828.35 735.43 832.35
  Q 731.48 835.07 727.59 837.87
  Z
  M 175.08 422.54
  C 147.22 516.36 158.74 620.40 212.09 704.47
  C 241.98 751.57 281.33 789.72 329.03 818.45
  C 380.55 849.48 440.37 867.50 501.01 869.19
  Q 573.10 871.19 640.70 845.56
  C 708.78 819.75 767.46 771.59 807.62 710.88
  C 849.39 647.70 867.40 572.75 862.35 497.50
  C 858.42 438.78 838.36 379.25 804.32 330.30
  Q 750.34 252.68 666.51 212.21
  Q 605.59 182.81 540.75 177.28
  C 454.66 169.93 368.09 196.07 299.13 247.36
  C 241.47 290.25 195.63 353.34 175.08 422.54
  Z"
/>
<path fill="#ffffff" d="
  M 212.09 704.47
  C 158.74 620.40 147.22 516.36 175.08 422.54
  C 195.63 353.34 241.47 290.25 299.13 247.36
  C 368.09 196.07 454.66 169.93 540.75 177.28
  Q 605.59 182.81 666.51 212.21
  Q 750.34 252.68 804.32 330.30
  C 838.36 379.25 858.42 438.78 862.35 497.50
  C 867.40 572.75 849.39 647.70 807.62 710.88
  C 767.46 771.59 708.78 819.75 640.70 845.56
  Q 573.10 871.19 501.01 869.19
  C 440.37 867.50 380.55 849.48 329.03 818.45
  C 281.33 789.72 241.98 751.57 212.09 704.47
  Z
  M 556.99 708.09
  Q 567.42 697.84 576.79 688.29
  C 579.69 685.34 579.33 681.29 579.30 677.19
  C 579.26 672.64 578.08 670.51 575.04 667.47
  Q 566.59 659.05 557.68 649.97
  Q 556.41 648.68 557.44 647.19
  Q 558.12 646.19 559.65 644.65
  Q 566.87 637.37 574.14 630.14
  C 576.95 627.34 580.14 623.97 576.96 620.03
  C 573.26 615.46 568.39 611.14 564.07 606.61
  A 2.21 2.20 -44.5 0 1 564.10 603.55
  Q 570.70 596.85 576.58 590.79
  C 579.74 587.54 579.04 583.14 579.03 579.00
  Q 578.96 560.63 579.17 542.25
  Q 579.20 539.97 580.85 539.09
  C 637.02 509.23 667.53 453.10 667.50 390.00
  Q 667.50 383.30 667.00 378.47
  C 666.50 373.62 663.93 368.64 663.13 364.01
  Q 660.80 350.51 657.94 339.75
  C 649.66 308.57 627.74 281.34 602.08 262.41
  C 573.39 241.24 533.31 228.63 496.50 232.03
  C 452.38 236.10 411.68 257.08 384.38 293.37
  Q 374.43 306.59 370.21 317.97
  C 364.57 333.17 362.79 354.57 360.01 370.00
  Q 358.69 377.33 353.19 382.63
  C 352.60 383.21 352.25 384.58 352.24 385.39
  C 351.18 444.35 379.51 502.68 430.58 533.99
  Q 436.33 537.52 442.25 540.04
  A 2.53 2.52 -78.6 0 1 443.79 542.37
  Q 443.90 652.63 443.51 762.51
  Q 443.49 768.56 443.74 770.28
  Q 444.43 775.22 448.74 779.52
  Q 471.36 802.09 494.07 824.59
  C 495.59 826.10 497.87 827.65 499.74 827.79
  Q 505.83 828.24 517.35 827.94
  C 521.84 827.82 524.75 827.95 527.50 825.28
  C 541.65 811.52 557.71 793.99 575.00 777.75
  Q 578.86 774.12 578.93 768.75
  Q 579.12 754.16 579.27 739.56
  Q 579.32 734.84 575.90 731.36
  C 568.42 723.74 562.50 718.36 556.85 711.88
  Q 555.13 709.91 556.99 708.09
  Z
  M 351.02 305.65
  Q 353.43 301.07 349.15 298.79
  C 344.29 296.19 338.19 300.45 335.37 304.44
  C 331.66 309.69 333.28 317.96 340.56 318.22
  C 343.78 318.34 346.33 318.19 347.33 314.76
  Q 348.72 310.02 351.02 305.65
  Z
  M 671.17 307.81
  Q 673.04 311.12 675.99 317.53
  Q 676.57 318.78 678.50 319.04
  C 685.51 319.99 691.58 314.49 688.67 307.55
  C 686.37 302.05 676.64 294.82 671.59 301.32
  Q 669.23 304.36 671.17 307.81
  Z
  M 335.57 329.91
  C 329.47 327.39 325.72 330.29 320.44 334.33
  Q 314.89 338.59 311.45 342.99
  Q 307.77 347.71 312.21 351.78
  Q 320.47 359.35 327.25 364.75
  Q 330.62 367.43 334.10 365.81
  A 2.25 2.23 82.7 0 0 335.37 364.15
  Q 337.15 353.59 339.78 343.28
  C 341.31 337.28 341.87 332.51 335.57 329.91
  Z
  M 774.14 444.98
  C 762.38 404.98 740.52 371.35 710.98 342.02
  Q 705.48 336.57 699.29 331.96
  C 694.59 328.47 687.57 328.76 684.50 334.09
  C 682.85 336.96 683.59 340.42 684.57 343.45
  Q 689.11 357.47 691.65 371.98
  Q 692.33 375.82 693.86 376.90
  Q 702.74 383.20 710.56 394.42
  Q 732.01 425.17 740.90 458.76
  C 742.35 464.24 747.44 463.32 751.76 461.57
  Q 760.26 458.12 769.00 455.31
  C 775.61 453.19 775.86 450.85 774.14 444.98
  Z
  M 253.95 432.13
  Q 251.13 439.92 249.33 448.00
  C 248.53 451.59 251.29 453.15 254.00 454.09
  Q 262.96 457.19 271.83 460.58
  C 276.73 462.46 281.42 463.16 283.23 457.26
  Q 293.12 424.99 311.21 398.39
  Q 315.70 391.78 309.86 386.16
  Q 302.97 379.53 295.91 373.08
  C 290.75 368.38 288.29 370.44 284.93 374.91
  Q 265.16 401.21 253.95 432.13
  Z
  M 326.8392 513.2377
  A 17.58 17.28 81.3 0 0 341.2612 493.2462
  A 17.58 17.28 81.3 0 0 321.5208 478.4823
  A 17.58 17.28 81.3 0 0 307.0988 498.4738
  A 17.58 17.28 81.3 0 0 326.8392 513.2377
  Z
  M 692.8556 511.9148
  A 17.71 17.38 115.5 0 0 716.1669 503.4123
  A 17.71 17.38 115.5 0 0 708.1044 479.9452
  A 17.71 17.38 115.5 0 0 684.7931 488.4477
  A 17.71 17.38 115.5 0 0 692.8556 511.9148
  Z
  M 248.9089 523.8624
  A 20.55 20.24 101.0 0 0 272.6981 507.5520
  A 20.55 20.24 101.0 0 0 256.7511 483.5176
  A 20.55 20.24 101.0 0 0 232.9619 499.8280
  A 20.55 20.24 101.0 0 0 248.9089 523.8624
  Z
  M 762.6906 522.2625
  A 20.61 20.28 116.2 0 0 789.9864 512.7237
  A 20.61 20.28 116.2 0 0 780.8894 485.2775
  A 20.61 20.28 116.2 0 0 753.5936 494.8163
  A 20.61 20.28 116.2 0 0 762.6906 522.2625
  Z
  M 290.80 580.53
  A 29.83 29.83 0.0 0 0 260.97 550.70
  A 29.83 29.83 0.0 0 0 231.14 580.53
  A 29.83 29.83 0.0 0 0 260.97 610.36
  A 29.83 29.83 0.0 0 0 290.80 580.53
  Z
  M 793.34 580.49
  A 29.92 29.92 0.0 0 0 763.42 550.57
  A 29.92 29.92 0.0 0 0 733.50 580.49
  A 29.92 29.92 0.0 0 0 763.42 610.41
  A 29.92 29.92 0.0 0 0 793.34 580.49
  Z
  M 652.08 589.72
  Q 632.54 589.80 612.75 589.76
  C 608.12 589.75 603.77 591.01 603.41 595.75
  Q 602.96 601.66 603.39 609.26
  C 603.64 613.76 604.94 618.12 609.99 618.13
  Q 629.65 618.17 650.01 617.98
  A 3.75 3.74 73.3 0 1 653.19 619.69
  C 660.79 631.49 672.77 637.57 686.74 634.15
  C 709.80 628.51 719.08 599.78 702.85 581.90
  C 696.66 575.08 688.54 571.31 679.20 571.53
  Q 661.49 571.93 653.30 588.95
  A 1.36 1.35 -77.1 0 1 652.08 589.72
  Z
  M 374.53 589.95
  A 1.49 1.48 77.5 0 1 373.16 589.07
  Q 366.56 574.38 352.09 572.07
  C 339.75 570.11 327.47 575.21 320.60 585.75
  C 305.45 608.95 324.81 639.87 352.45 634.39
  Q 365.51 631.80 373.03 619.19
  Q 373.56 618.30 375.00 618.28
  Q 392.63 618.03 410.25 618.19
  C 414.60 618.23 419.61 617.52 419.94 612.25
  Q 420.42 604.75 420.04 597.24
  C 419.73 591.00 415.74 589.37 410.00 589.48
  Q 392.20 589.83 374.53 589.95
  Z
  M 741.23 628.09
  C 735.64 625.57 731.39 622.83 727.86 628.82
  Q 719.89 642.33 714.45 650.39
  Q 711.49 654.77 715.41 657.34
  Q 727.97 665.58 735.00 671.02
  C 740.28 675.11 744.53 671.02 747.31 666.76
  Q 753.23 657.66 758.78 648.32
  Q 761.19 644.26 761.51 642.95
  Q 762.59 638.51 757.99 636.15
  Q 749.72 631.91 741.23 628.09
  Z
  M 287.69 634.42
  Q 279.66 638.77 271.97 643.73
  Q 265.86 647.67 269.54 653.95
  Q 275.84 664.71 285.14 675.90
  C 287.35 678.56 289.95 679.56 292.76 677.23
  Q 303.36 668.45 312.52 662.29
  Q 316.77 659.43 314.20 655.33
  Q 304.49 639.81 301.98 635.25
  C 297.80 627.65 293.05 631.52 287.69 634.42
  Z
  M 718.2064 692.9995
  A 26.81 26.39 -23.5 0 0 683.0970 679.4888
  A 26.81 26.39 -23.5 0 0 669.0336 714.3805
  A 26.81 26.39 -23.5 0 0 704.1430 727.8912
  A 26.81 26.39 -23.5 0 0 718.2064 692.9995
  Z
  M 360.08 703.76
  A 24.80 24.80 0.0 0 0 335.28 678.96
  A 24.80 24.80 0.0 0 0 310.48 703.76
  A 24.80 24.80 0.0 0 0 335.28 728.56
  A 24.80 24.80 0.0 0 0 360.08 703.76
  Z
  M 372.81 755.94
  C 383.40 762.02 394.67 767.73 405.96 772.36
  C 410.01 774.01 416.31 774.11 416.76 769.00
  Q 417.77 757.51 419.11 746.01
  C 419.84 739.74 419.65 736.18 413.64 733.64
  Q 408.52 731.47 392.46 722.95
  Q 387.68 720.42 384.57 724.82
  Q 379.47 732.04 369.85 743.86
  C 365.40 749.32 367.12 752.67 372.81 755.94
  Z
  M 624.04 769.44
  Q 640.21 762.93 655.25 754.06
  Q 661.43 750.42 657.40 744.36
  Q 651.47 735.42 645.58 726.44
  Q 644.21 724.35 641.57 722.41
  Q 641.16 722.10 640.66 722.17
  Q 637.66 722.57 634.89 723.87
  Q 621.81 730.05 608.21 734.95
  C 604.96 736.12 601.95 738.24 602.36 741.62
  Q 603.58 751.69 606.69 768.47
  C 608.35 777.43 619.08 771.44 624.04 769.44
  Z"
/>
<path fill="#2c466b" d="
  M 556.99 708.09
  Q 555.13 709.91 556.85 711.88
  C 562.50 718.36 568.42 723.74 575.90 731.36
  Q 579.32 734.84 579.27 739.56
  Q 579.12 754.16 578.93 768.75
  Q 578.86 774.12 575.00 777.75
  C 557.71 793.99 541.65 811.52 527.50 825.28
  C 524.75 827.95 521.84 827.82 517.35 827.94
  Q 505.83 828.24 499.74 827.79
  C 497.87 827.65 495.59 826.10 494.07 824.59
  Q 471.36 802.09 448.74 779.52
  Q 444.43 775.22 443.74 770.28
  Q 443.49 768.56 443.51 762.51
  Q 443.90 652.63 443.79 542.37
  A 2.53 2.52 -78.6 0 0 442.25 540.04
  Q 436.33 537.52 430.58 533.99
  C 379.51 502.68 351.18 444.35 352.24 385.39
  C 352.25 384.58 352.60 383.21 353.19 382.63
  Q 358.69 377.33 360.01 370.00
  C 362.79 354.57 364.57 333.17 370.21 317.97
  Q 374.43 306.59 384.38 293.37
  C 411.68 257.08 452.38 236.10 496.50 232.03
  C 533.31 228.63 573.39 241.24 602.08 262.41
  C 627.74 281.34 649.66 308.57 657.94 339.75
  Q 660.80 350.51 663.13 364.01
  C 663.93 368.64 666.50 373.62 667.00 378.47
  Q 667.50 383.30 667.50 390.00
  C 667.53 453.10 637.02 509.23 580.85 539.09
  Q 579.20 539.97 579.17 542.25
  Q 578.96 560.63 579.03 579.00
  C 579.04 583.14 579.74 587.54 576.58 590.79
  Q 570.70 596.85 564.10 603.55
  A 2.21 2.20 -44.5 0 0 564.07 606.61
  C 568.39 611.14 573.26 615.46 576.96 620.03
  C 580.14 623.97 576.95 627.34 574.14 630.14
  Q 566.87 637.37 559.65 644.65
  Q 558.12 646.19 557.44 647.19
  Q 556.41 648.68 557.68 649.97
  Q 566.59 659.05 575.04 667.47
  C 578.08 670.51 579.26 672.64 579.30 677.19
  C 579.33 681.29 579.69 685.34 576.79 688.29
  Q 567.42 697.84 556.99 708.09
  Z
  M 553.72 288.21
  C 580.06 300.33 600.89 325.83 609.15 353.19
  Q 610.52 357.73 612.58 359.43
  C 616.16 362.37 623.52 360.97 624.66 355.67
  Q 625.34 352.56 624.35 349.03
  C 614.52 313.70 589.49 283.86 554.86 270.74
  C 548.70 268.41 539.58 269.30 541.09 278.45
  C 542.03 284.11 549.13 286.10 553.72 288.21
  Z
  M 452.75 273.78
  C 423.06 286.71 401.87 312.55 392.28 343.19
  Q 389.79 351.13 389.51 357.24
  C 389.20 363.97 394.46 369.39 401.15 366.95
  C 403.66 366.03 405.08 364.27 405.74 361.75
  C 407.13 356.39 408.44 350.73 410.28 345.81
  Q 422.79 312.46 452.96 293.48
  C 456.70 291.13 467.58 287.45 469.56 284.33
  C 472.03 280.45 471.64 275.70 467.88 272.94
  C 463.57 269.77 457.16 271.87 452.75 273.78
  Z
  M 576.26 328.99
  C 560.67 307.56 537.91 295.74 511.50 295.25
  Q 482.16 294.71 459.49 311.34
  C 452.98 316.12 447.51 322.16 442.07 328.57
  Q 437.14 334.37 440.35 339.88
  C 445.59 348.90 452.47 341.86 456.17 336.67
  C 479.77 303.50 530.39 300.51 558.01 330.56
  C 562.29 335.22 566.89 346.30 574.66 342.64
  C 580.44 339.92 579.59 333.55 576.26 328.99
  Z
  M 523.68 405.12
  C 538.95 399.94 547.46 385.39 544.99 369.26
  C 541.20 344.44 512.29 331.51 491.47 345.66
  C 469.21 360.79 472.19 393.79 496.55 404.93
  C 498.23 405.70 498.80 406.73 498.78 408.50
  Q 498.49 435.00 498.37 461.50
  C 498.33 470.09 500.20 474.19 506.84 479.68
  C 508.97 481.44 511.54 481.59 513.87 479.86
  C 516.73 477.72 522.82 472.19 522.77 468.25
  Q 522.43 437.37 522.67 406.53
  A 1.51 1.49 81.0 0 1 523.68 405.12
  Z
  M 607.54 428.63
  Q 604.96 433.99 602.48 439.42
  C 597.81 449.62 611.60 456.42 617.01 446.29
  Q 630.55 420.93 631.00 393.00
  C 631.11 385.75 625.77 380.75 618.61 384.92
  C 615.15 386.94 615.50 394.70 615.00 401.00
  Q 613.85 415.52 607.54 428.63
  Z
  M 396.13 428.94
  C 398.01 434.12 403.48 450.18 409.10 450.93
  C 414.62 451.66 419.58 448.37 418.77 442.54
  Q 418.42 440.03 417.73 438.83
  Q 406.29 419.13 405.14 396.50
  Q 404.84 390.73 404.19 389.11
  C 401.51 382.47 389.63 383.28 389.57 391.24
  Q 389.43 410.45 396.13 428.94
  Z
  M 549.48 518.33
  A 1.99 1.99 0.0 0 1 551.00 516.50
  C 558.96 514.51 578.85 511.27 575.45 498.74
  C 572.63 488.36 561.19 494.40 555.08 496.60
  C 532.76 504.66 510.68 505.79 487.36 501.53
  C 480.96 500.36 475.31 500.13 475.04 508.24
  Q 474.78 516.16 474.78 520.00
  Q 474.79 637.87 474.80 755.75
  C 474.80 760.47 475.32 763.39 477.91 766.08
  Q 493.86 782.64 510.23 798.14
  A 1.34 1.34 0.0 0 0 512.11 798.10
  Q 529.20 780.63 546.29 763.85
  C 547.83 762.34 548.88 760.74 549.01 758.75
  Q 549.51 750.96 548.95 740.26
  Q 548.83 737.93 546.83 735.91
  Q 539.82 728.85 524.25 713.74
  C 519.61 709.24 520.00 702.46 524.53 698.03
  Q 536.28 686.54 547.42 674.66
  A 1.96 1.96 0.0 0 0 547.38 671.94
  Q 536.52 661.10 525.91 650.58
  C 520.57 645.29 523.71 641.12 528.18 636.62
  Q 535.21 629.56 542.18 622.43
  Q 543.34 621.25 544.13 619.75
  Q 544.37 619.31 544.13 618.86
  Q 543.53 617.74 542.59 616.90
  Q 537.08 611.93 531.78 606.74
  C 527.20 602.24 529.05 597.46 533.03 593.52
  Q 540.24 586.37 547.32 579.08
  C 549.46 576.89 549.24 573.58 549.24 570.75
  Q 549.26 546.12 549.39 521.50
  Q 549.40 519.68 549.48 518.33
  Z"
/>
<path fill="#ffffff" d="
  M 609.15 353.19
  C 600.89 325.83 580.06 300.33 553.72 288.21
  C 549.13 286.10 542.03 284.11 541.09 278.45
  C 539.58 269.30 548.70 268.41 554.86 270.74
  C 589.49 283.86 614.52 313.70 624.35 349.03
  Q 625.34 352.56 624.66 355.67
  C 623.52 360.97 616.16 362.37 612.58 359.43
  Q 610.52 357.73 609.15 353.19
  Z"
/>
<path fill="#ffffff" d="
  M 392.28 343.19
  C 401.87 312.55 423.06 286.71 452.75 273.78
  C 457.16 271.87 463.57 269.77 467.88 272.94
  C 471.64 275.70 472.03 280.45 469.56 284.33
  C 467.58 287.45 456.70 291.13 452.96 293.48
  Q 422.79 312.46 410.28 345.81
  C 408.44 350.73 407.13 356.39 405.74 361.75
  C 405.08 364.27 403.66 366.03 401.15 366.95
  C 394.46 369.39 389.20 363.97 389.51 357.24
  Q 389.79 351.13 392.28 343.19
  Z"
/>
<path fill="#ffffff" d="
  M 511.50 295.25
  C 537.91 295.74 560.67 307.56 576.26 328.99
  C 579.59 333.55 580.44 339.92 574.66 342.64
  C 566.89 346.30 562.29 335.22 558.01 330.56
  C 530.39 300.51 479.77 303.50 456.17 336.67
  C 452.47 341.86 445.59 348.90 440.35 339.88
  Q 437.14 334.37 442.07 328.57
  C 447.51 322.16 452.98 316.12 459.49 311.34
  Q 482.16 294.71 511.50 295.25
  Z"
/>
<path fill="#2c466b" d="
  M 351.02 305.65
  Q 348.72 310.02 347.33 314.76
  C 346.33 318.19 343.78 318.34 340.56 318.22
  C 333.28 317.96 331.66 309.69 335.37 304.44
  C 338.19 300.45 344.29 296.19 349.15 298.79
  Q 353.43 301.07 351.02 305.65
  Z"
/>
<path fill="#2c466b" d="
  M 671.17 307.81
  Q 669.23 304.36 671.59 301.32
  C 676.64 294.82 686.37 302.05 688.67 307.55
  C 691.58 314.49 685.51 319.99 678.50 319.04
  Q 676.57 318.78 675.99 317.53
  Q 673.04 311.12 671.17 307.81
  Z"
/>
<path fill="#2c466b" d="
  M 335.57 329.91
  C 341.87 332.51 341.31 337.28 339.78 343.28
  Q 337.15 353.59 335.37 364.15
  A 2.25 2.23 82.7 0 1 334.10 365.81
  Q 330.62 367.43 327.25 364.75
  Q 320.47 359.35 312.21 351.78
  Q 307.77 347.71 311.45 342.99
  Q 314.89 338.59 320.44 334.33
  C 325.72 330.29 329.47 327.39 335.57 329.91
  Z"
/>
<path fill="#2c466b" d="
  M 710.98 342.02
  C 740.52 371.35 762.38 404.98 774.14 444.98
  C 775.86 450.85 775.61 453.19 769.00 455.31
  Q 760.26 458.12 751.76 461.57
  C 747.44 463.32 742.35 464.24 740.90 458.76
  Q 732.01 425.17 710.56 394.42
  Q 702.74 383.20 693.86 376.90
  Q 692.33 375.82 691.65 371.98
  Q 689.11 357.47 684.57 343.45
  C 683.59 340.42 682.85 336.96 684.50 334.09
  C 687.57 328.76 694.59 328.47 699.29 331.96
  Q 705.48 336.57 710.98 342.02
  Z"
/>
<path fill="#ffffff" d="
  M 544.99 369.26
  C 547.46 385.39 538.95 399.94 523.68 405.12
  A 1.51 1.49 81.0 0 0 522.67 406.53
  Q 522.43 437.37 522.77 468.25
  C 522.82 472.19 516.73 477.72 513.87 479.86
  C 511.54 481.59 508.97 481.44 506.84 479.68
  C 500.20 474.19 498.33 470.09 498.37 461.50
  Q 498.49 435.00 498.78 408.50
  C 498.80 406.73 498.23 405.70 496.55 404.93
  C 472.19 393.79 469.21 360.79 491.47 345.66
  C 512.29 331.51 541.20 344.44 544.99 369.26
  Z"
/>
<path fill="#2c466b" d="
  M 253.95 432.13
  Q 265.16 401.21 284.93 374.91
  C 288.29 370.44 290.75 368.38 295.91 373.08
  Q 302.97 379.53 309.86 386.16
  Q 315.70 391.78 311.21 398.39
  Q 293.12 424.99 283.23 457.26
  C 281.42 463.16 276.73 462.46 271.83 460.58
  Q 262.96 457.19 254.00 454.09
  C 251.29 453.15 248.53 451.59 249.33 448.00
  Q 251.13 439.92 253.95 432.13
  Z"
/>
<path fill="#ffffff" d="
  M 607.54 428.63
  Q 613.85 415.52 615.00 401.00
  C 615.50 394.70 615.15 386.94 618.61 384.92
  C 625.77 380.75 631.11 385.75 631.00 393.00
  Q 630.55 420.93 617.01 446.29
  C 611.60 456.42 597.81 449.62 602.48 439.42
  Q 604.96 433.99 607.54 428.63
  Z"
/>
<path fill="#ffffff" d="
  M 396.13 428.94
  Q 389.43 410.45 389.57 391.24
  C 389.63 383.28 401.51 382.47 404.19 389.11
  Q 404.84 390.73 405.14 396.50
  Q 406.29 419.13 417.73 438.83
  Q 418.42 440.03 418.77 442.54
  C 419.58 448.37 414.62 451.66 409.10 450.93
  C 403.48 450.18 398.01 434.12 396.13 428.94
  Z"
/>
<ellipse fill="#2c466b" cx="0.00" cy="0.00" transform="translate(324.18,495.86) rotate(81.3)" rx="17.58" ry="17.28"/>
<ellipse fill="#2c466b" cx="0.00" cy="0.00" transform="translate(700.48,495.93) rotate(115.5)" rx="17.71" ry="17.38"/>
<ellipse fill="#2c466b" cx="0.00" cy="0.00" transform="translate(252.83,503.69) rotate(101.0)" rx="20.55" ry="20.24"/>
<ellipse fill="#2c466b" cx="0.00" cy="0.00" transform="translate(771.79,503.77) rotate(116.2)" rx="20.61" ry="20.28"/>
<path fill="#ffffff" d="
  M 549.48 518.33
  Q 549.40 519.68 549.39 521.50
  Q 549.26 546.12 549.24 570.75
  C 549.24 573.58 549.46 576.89 547.32 579.08
  Q 540.24 586.37 533.03 593.52
  C 529.05 597.46 527.20 602.24 531.78 606.74
  Q 537.08 611.93 542.59 616.90
  Q 543.53 617.74 544.13 618.86
  Q 544.37 619.31 544.13 619.75
  Q 543.34 621.25 542.18 622.43
  Q 535.21 629.56 528.18 636.62
  C 523.71 641.12 520.57 645.29 525.91 650.58
  Q 536.52 661.10 547.38 671.94
  A 1.96 1.96 0.0 0 1 547.42 674.66
  Q 536.28 686.54 524.53 698.03
  C 520.00 702.46 519.61 709.24 524.25 713.74
  Q 539.82 728.85 546.83 735.91
  Q 548.83 737.93 548.95 740.26
  Q 549.51 750.96 549.01 758.75
  C 548.88 760.74 547.83 762.34 546.29 763.85
  Q 529.20 780.63 512.11 798.10
  A 1.34 1.34 0.0 0 1 510.23 798.14
  Q 493.86 782.64 477.91 766.08
  C 475.32 763.39 474.80 760.47 474.80 755.75
  Q 474.79 637.87 474.78 520.00
  Q 474.78 516.16 475.04 508.24
  C 475.31 500.13 480.96 500.36 487.36 501.53
  C 510.68 505.79 532.76 504.66 555.08 496.60
  C 561.19 494.40 572.63 488.36 575.45 498.74
  C 578.85 511.27 558.96 514.51 551.00 516.50
  A 1.99 1.99 0.0 0 0 549.48 518.33
  Z"
/>
<circle fill="#2c466b" cx="260.97" cy="580.53" r="29.83"/>
<circle fill="#2c466b" cx="763.42" cy="580.49" r="29.92"/>
<path fill="#2c466b" d="
  M 652.08 589.72
  A 1.36 1.35 -77.1 0 0 653.30 588.95
  Q 661.49 571.93 679.20 571.53
  C 688.54 571.31 696.66 575.08 702.85 581.90
  C 719.08 599.78 709.80 628.51 686.74 634.15
  C 672.77 637.57 660.79 631.49 653.19 619.69
  A 3.75 3.74 73.3 0 0 650.01 617.98
  Q 629.65 618.17 609.99 618.13
  C 604.94 618.12 603.64 613.76 603.39 609.26
  Q 602.96 601.66 603.41 595.75
  C 603.77 591.01 608.12 589.75 612.75 589.76
  Q 632.54 589.80 652.08 589.72
  Z"
/>
<path fill="#2c466b" d="
  M 374.53 589.95
  Q 392.20 589.83 410.00 589.48
  C 415.74 589.37 419.73 591.00 420.04 597.24
  Q 420.42 604.75 419.94 612.25
  C 419.61 617.52 414.60 618.23 410.25 618.19
  Q 392.63 618.03 375.00 618.28
  Q 373.56 618.30 373.03 619.19
  Q 365.51 631.80 352.45 634.39
  C 324.81 639.87 305.45 608.95 320.60 585.75
  C 327.47 575.21 339.75 570.11 352.09 572.07
  Q 366.56 574.38 373.16 589.07
  A 1.49 1.48 77.5 0 0 374.53 589.95
  Z"
/>
<path fill="#2c466b" d="
  M 741.23 628.09
  Q 749.72 631.91 757.99 636.15
  Q 762.59 638.51 761.51 642.95
  Q 761.19 644.26 758.78 648.32
  Q 753.23 657.66 747.31 666.76
  C 744.53 671.02 740.28 675.11 735.00 671.02
  Q 727.97 665.58 715.41 657.34
  Q 711.49 654.77 714.45 650.39
  Q 719.89 642.33 727.86 628.82
  C 731.39 622.83 735.64 625.57 741.23 628.09
  Z"
/>
<path fill="#2c466b" d="
  M 287.69 634.42
  C 293.05 631.52 297.80 627.65 301.98 635.25
  Q 304.49 639.81 314.20 655.33
  Q 316.77 659.43 312.52 662.29
  Q 303.36 668.45 292.76 677.23
  C 289.95 679.56 287.35 678.56 285.14 675.90
  Q 275.84 664.71 269.54 653.95
  Q 265.86 647.67 271.97 643.73
  Q 279.66 638.77 287.69 634.42
  Z"
/>
<ellipse fill="#2c466b" cx="0.00" cy="0.00" transform="translate(693.62,703.69) rotate(-23.5)" rx="26.81" ry="26.39"/>
<circle fill="#2c466b" cx="335.28" cy="703.76" r="24.80"/>
<path fill="#2c466b" d="
  M 405.96 772.36
  C 394.67 767.73 383.40 762.02 372.81 755.94
  C 367.12 752.67 365.40 749.32 369.85 743.86
  Q 379.47 732.04 384.57 724.82
  Q 387.68 720.42 392.46 722.95
  Q 408.52 731.47 413.64 733.64
  C 419.65 736.18 419.84 739.74 419.11 746.01
  Q 417.77 757.51 416.76 769.00
  C 416.31 774.11 410.01 774.01 405.96 772.36
  Z"
/>
<path fill="#2c466b" d="
  M 624.04 769.44
  C 619.08 771.44 608.35 777.43 606.69 768.47
  Q 603.58 751.69 602.36 741.62
  C 601.95 738.24 604.96 736.12 608.21 734.95
  Q 621.81 730.05 634.89 723.87
  Q 637.66 722.57 640.66 722.17
  Q 641.16 722.10 641.57 722.41
  Q 644.21 724.35 645.58 726.44
  Q 651.47 735.42 657.40 744.36
  Q 661.43 750.42 655.25 754.06
  Q 640.21 762.93 624.04 769.44
  Z"
/>
</svg>
